<mxfile host="app.diagrams.net" modified="2024-05-13T09:07:31.942Z" agent="Mozilla/5.0 (Windows NT 10.0; Win64; x64) AppleWebKit/537.36 (KHTML, like Gecko) Chrome/124.0.0.0 Safari/537.36" etag="TG7xD5_16eqQ3EfucUB_" version="24.4.0" type="device">
  <diagram name="Page-1" id="GbbonjQuju9cyqmz1zjG">
    <mxGraphModel dx="2245" dy="2691" grid="1" gridSize="10" guides="1" tooltips="1" connect="1" arrows="1" fold="1" page="1" pageScale="1" pageWidth="827" pageHeight="1169" math="0" shadow="0">
      <root>
        <mxCell id="0" />
        <mxCell id="1" parent="0" />
        <mxCell id="nD2KpDLhWSEHvNIZdmov-59" style="edgeStyle=orthogonalEdgeStyle;rounded=0;orthogonalLoop=1;jettySize=auto;html=1;exitX=0.5;exitY=1;exitDx=0;exitDy=0;" edge="1" parent="1" source="nD2KpDLhWSEHvNIZdmov-61">
          <mxGeometry relative="1" as="geometry">
            <mxPoint x="-230" y="-46" as="targetPoint" />
          </mxGeometry>
        </mxCell>
        <mxCell id="nD2KpDLhWSEHvNIZdmov-60" style="edgeStyle=orthogonalEdgeStyle;rounded=0;orthogonalLoop=1;jettySize=auto;html=1;exitX=0;exitY=0.5;exitDx=0;exitDy=0;entryX=1;entryY=0.5;entryDx=0;entryDy=0;" edge="1" parent="1" source="nD2KpDLhWSEHvNIZdmov-61" target="nD2KpDLhWSEHvNIZdmov-92">
          <mxGeometry relative="1" as="geometry" />
        </mxCell>
        <mxCell id="nD2KpDLhWSEHvNIZdmov-61" value="매물 존재 여부" style="rhombus;whiteSpace=wrap;html=1;shadow=0;fontFamily=Helvetica;fontSize=12;align=center;strokeWidth=1;spacing=6;spacingTop=-4;" vertex="1" parent="1">
          <mxGeometry x="-290" y="-146" width="120" height="80" as="geometry" />
        </mxCell>
        <mxCell id="nD2KpDLhWSEHvNIZdmov-62" style="edgeStyle=orthogonalEdgeStyle;rounded=0;orthogonalLoop=1;jettySize=auto;html=1;exitX=0.5;exitY=1;exitDx=0;exitDy=0;entryX=0.5;entryY=0;entryDx=0;entryDy=0;" edge="1" parent="1" source="nD2KpDLhWSEHvNIZdmov-64" target="nD2KpDLhWSEHvNIZdmov-71">
          <mxGeometry relative="1" as="geometry" />
        </mxCell>
        <mxCell id="nD2KpDLhWSEHvNIZdmov-63" style="edgeStyle=orthogonalEdgeStyle;rounded=0;orthogonalLoop=1;jettySize=auto;html=1;exitX=0;exitY=0.5;exitDx=0;exitDy=0;entryX=0;entryY=0.5;entryDx=0;entryDy=0;" edge="1" parent="1" source="nD2KpDLhWSEHvNIZdmov-64">
          <mxGeometry relative="1" as="geometry">
            <Array as="points">
              <mxPoint x="-530" y="436" />
              <mxPoint x="-530" y="-390" />
            </Array>
            <mxPoint x="-300" y="-390.0000000000002" as="targetPoint" />
          </mxGeometry>
        </mxCell>
        <mxCell id="nD2KpDLhWSEHvNIZdmov-64" value="다른 매물을&lt;div&gt;조회 하시겠습니까?&lt;/div&gt;" style="rhombus;whiteSpace=wrap;html=1;shadow=0;fontFamily=Helvetica;fontSize=12;align=center;strokeWidth=1;spacing=6;spacingTop=-4;" vertex="1" parent="1">
          <mxGeometry x="-295" y="396" width="130" height="80" as="geometry" />
        </mxCell>
        <mxCell id="nD2KpDLhWSEHvNIZdmov-65" style="edgeStyle=orthogonalEdgeStyle;rounded=0;orthogonalLoop=1;jettySize=auto;html=1;exitX=0.5;exitY=1;exitDx=0;exitDy=0;entryX=0.5;entryY=0;entryDx=0;entryDy=0;" edge="1" parent="1" source="nD2KpDLhWSEHvNIZdmov-66" target="nD2KpDLhWSEHvNIZdmov-64">
          <mxGeometry relative="1" as="geometry" />
        </mxCell>
        <mxCell id="nD2KpDLhWSEHvNIZdmov-120" value="Text" style="edgeLabel;html=1;align=center;verticalAlign=middle;resizable=0;points=[];" vertex="1" connectable="0" parent="nD2KpDLhWSEHvNIZdmov-65">
          <mxGeometry x="-0.0588" y="-4" relative="1" as="geometry">
            <mxPoint as="offset" />
          </mxGeometry>
        </mxCell>
        <mxCell id="nD2KpDLhWSEHvNIZdmov-66" value="다른 매물 조회 여부 확인" style="rounded=1;whiteSpace=wrap;html=1;fontSize=12;glass=0;strokeWidth=1;shadow=0;" vertex="1" parent="1">
          <mxGeometry x="-300" y="326" width="140" height="40" as="geometry" />
        </mxCell>
        <mxCell id="nD2KpDLhWSEHvNIZdmov-67" style="edgeStyle=orthogonalEdgeStyle;rounded=0;orthogonalLoop=1;jettySize=auto;html=1;exitX=0.5;exitY=1;exitDx=0;exitDy=0;" edge="1" parent="1" source="nD2KpDLhWSEHvNIZdmov-68">
          <mxGeometry relative="1" as="geometry">
            <mxPoint x="-230" y="120" as="targetPoint" />
          </mxGeometry>
        </mxCell>
        <mxCell id="nD2KpDLhWSEHvNIZdmov-68" value="조회 매물 DB 저장" style="rounded=1;whiteSpace=wrap;html=1;fontSize=12;glass=0;strokeWidth=1;shadow=0;" vertex="1" parent="1">
          <mxGeometry x="-300" y="16" width="140" height="40" as="geometry" />
        </mxCell>
        <mxCell id="nD2KpDLhWSEHvNIZdmov-70" value="시작" style="ellipse;whiteSpace=wrap;html=1;" vertex="1" parent="1">
          <mxGeometry x="-300" y="-570" width="140" height="30" as="geometry" />
        </mxCell>
        <mxCell id="nD2KpDLhWSEHvNIZdmov-71" value="종료" style="ellipse;whiteSpace=wrap;html=1;" vertex="1" parent="1">
          <mxGeometry x="-300" y="506" width="140" height="30" as="geometry" />
        </mxCell>
        <mxCell id="nD2KpDLhWSEHvNIZdmov-72" style="edgeStyle=orthogonalEdgeStyle;rounded=0;orthogonalLoop=1;jettySize=auto;html=1;exitX=0.5;exitY=1;exitDx=0;exitDy=0;" edge="1" parent="1" source="nD2KpDLhWSEHvNIZdmov-73" target="nD2KpDLhWSEHvNIZdmov-61">
          <mxGeometry relative="1" as="geometry" />
        </mxCell>
        <mxCell id="nD2KpDLhWSEHvNIZdmov-73" value="DB에서 매물 조회" style="rounded=1;whiteSpace=wrap;html=1;fontSize=12;glass=0;strokeWidth=1;shadow=0;" vertex="1" parent="1">
          <mxGeometry x="-300" y="-211" width="140" height="40" as="geometry" />
        </mxCell>
        <mxCell id="nD2KpDLhWSEHvNIZdmov-74" style="edgeStyle=orthogonalEdgeStyle;rounded=0;orthogonalLoop=1;jettySize=auto;html=1;exitX=0.5;exitY=1;exitDx=0;exitDy=0;entryX=0.5;entryY=0;entryDx=0;entryDy=0;" edge="1" parent="1" target="nD2KpDLhWSEHvNIZdmov-81">
          <mxGeometry relative="1" as="geometry">
            <mxPoint x="-230" y="-370.0000000000002" as="sourcePoint" />
          </mxGeometry>
        </mxCell>
        <mxCell id="nD2KpDLhWSEHvNIZdmov-76" style="edgeStyle=orthogonalEdgeStyle;rounded=0;orthogonalLoop=1;jettySize=auto;html=1;exitX=0.5;exitY=1;exitDx=0;exitDy=0;entryX=0.5;entryY=0;entryDx=0;entryDy=0;" edge="1" parent="1" source="nD2KpDLhWSEHvNIZdmov-79" target="nD2KpDLhWSEHvNIZdmov-85">
          <mxGeometry relative="1" as="geometry">
            <mxPoint x="287" y="-290" as="sourcePoint" />
            <Array as="points">
              <mxPoint x="310" y="-270" />
              <mxPoint x="120" y="-270" />
            </Array>
          </mxGeometry>
        </mxCell>
        <mxCell id="nD2KpDLhWSEHvNIZdmov-78" style="edgeStyle=orthogonalEdgeStyle;rounded=0;orthogonalLoop=1;jettySize=auto;html=1;exitX=0.5;exitY=1;exitDx=0;exitDy=0;entryX=0.5;entryY=0;entryDx=0;entryDy=0;" edge="1" parent="1" source="nD2KpDLhWSEHvNIZdmov-79" target="nD2KpDLhWSEHvNIZdmov-87">
          <mxGeometry relative="1" as="geometry" />
        </mxCell>
        <mxCell id="nD2KpDLhWSEHvNIZdmov-127" style="edgeStyle=orthogonalEdgeStyle;rounded=0;orthogonalLoop=1;jettySize=auto;html=1;entryX=0.5;entryY=0;entryDx=0;entryDy=0;" edge="1" parent="1" source="nD2KpDLhWSEHvNIZdmov-79" target="nD2KpDLhWSEHvNIZdmov-126">
          <mxGeometry relative="1" as="geometry" />
        </mxCell>
        <mxCell id="nD2KpDLhWSEHvNIZdmov-79" value="구 별 분석 정보 조회&lt;div&gt;(서브기능)&lt;/div&gt;" style="rounded=1;whiteSpace=wrap;html=1;fontSize=12;glass=0;strokeWidth=1;shadow=0;" vertex="1" parent="1">
          <mxGeometry x="225" y="-330" width="170" height="40" as="geometry" />
        </mxCell>
        <mxCell id="nD2KpDLhWSEHvNIZdmov-80" style="edgeStyle=orthogonalEdgeStyle;rounded=0;orthogonalLoop=1;jettySize=auto;html=1;exitX=0.5;exitY=1;exitDx=0;exitDy=0;entryX=0.5;entryY=0;entryDx=0;entryDy=0;" edge="1" parent="1" source="nD2KpDLhWSEHvNIZdmov-81" target="nD2KpDLhWSEHvNIZdmov-104">
          <mxGeometry relative="1" as="geometry" />
        </mxCell>
        <mxCell id="nD2KpDLhWSEHvNIZdmov-81" value="매물 상세 조회요청&lt;div&gt;(메인기능)&lt;/div&gt;" style="rounded=1;whiteSpace=wrap;html=1;fontSize=12;glass=0;strokeWidth=1;shadow=0;" vertex="1" parent="1">
          <mxGeometry x="-300" y="-330" width="140" height="40" as="geometry" />
        </mxCell>
        <mxCell id="nD2KpDLhWSEHvNIZdmov-82" style="edgeStyle=orthogonalEdgeStyle;rounded=0;orthogonalLoop=1;jettySize=auto;html=1;exitX=0.5;exitY=1;exitDx=0;exitDy=0;entryX=0.5;entryY=0;entryDx=0;entryDy=0;" edge="1" parent="1" source="nD2KpDLhWSEHvNIZdmov-83" target="nD2KpDLhWSEHvNIZdmov-109">
          <mxGeometry relative="1" as="geometry" />
        </mxCell>
        <mxCell id="nD2KpDLhWSEHvNIZdmov-83" value="해당 매물 지도 조회" style="rounded=1;whiteSpace=wrap;html=1;fontSize=12;glass=0;strokeWidth=1;shadow=0;" vertex="1" parent="1">
          <mxGeometry x="-400" y="164" width="140" height="40" as="geometry" />
        </mxCell>
        <mxCell id="nD2KpDLhWSEHvNIZdmov-84" style="edgeStyle=orthogonalEdgeStyle;rounded=0;orthogonalLoop=1;jettySize=auto;html=1;exitX=0.5;exitY=1;exitDx=0;exitDy=0;entryX=0.5;entryY=0;entryDx=0;entryDy=0;" edge="1" parent="1" source="nD2KpDLhWSEHvNIZdmov-85" target="nD2KpDLhWSEHvNIZdmov-110">
          <mxGeometry relative="1" as="geometry">
            <mxPoint x="287" y="-90" as="targetPoint" />
          </mxGeometry>
        </mxCell>
        <mxCell id="nD2KpDLhWSEHvNIZdmov-85" value="면적당 매매가" style="rounded=1;whiteSpace=wrap;html=1;fontSize=12;glass=0;strokeWidth=1;shadow=0;" vertex="1" parent="1">
          <mxGeometry x="60" y="-250" width="120" height="40" as="geometry" />
        </mxCell>
        <mxCell id="nD2KpDLhWSEHvNIZdmov-86" style="edgeStyle=orthogonalEdgeStyle;rounded=0;orthogonalLoop=1;jettySize=auto;html=1;exitX=0.5;exitY=1;exitDx=0;exitDy=0;" edge="1" parent="1" source="nD2KpDLhWSEHvNIZdmov-87">
          <mxGeometry relative="1" as="geometry">
            <mxPoint x="484" y="-90" as="targetPoint" />
          </mxGeometry>
        </mxCell>
        <mxCell id="nD2KpDLhWSEHvNIZdmov-87" value="매물 거래량 랭킹 조회" style="rounded=1;whiteSpace=wrap;html=1;fontSize=12;glass=0;strokeWidth=1;shadow=0;" vertex="1" parent="1">
          <mxGeometry x="424" y="-250" width="120" height="40" as="geometry" />
        </mxCell>
        <mxCell id="nD2KpDLhWSEHvNIZdmov-90" style="edgeStyle=orthogonalEdgeStyle;rounded=0;orthogonalLoop=1;jettySize=auto;html=1;exitX=1;exitY=0.5;exitDx=0;exitDy=0;entryX=0.5;entryY=0;entryDx=0;entryDy=0;" edge="1" parent="1" target="nD2KpDLhWSEHvNIZdmov-79">
          <mxGeometry relative="1" as="geometry">
            <mxPoint x="-160" y="-390.0000000000002" as="sourcePoint" />
          </mxGeometry>
        </mxCell>
        <mxCell id="nD2KpDLhWSEHvNIZdmov-91" style="edgeStyle=orthogonalEdgeStyle;rounded=0;orthogonalLoop=1;jettySize=auto;html=1;exitX=0;exitY=0.5;exitDx=0;exitDy=0;entryX=0;entryY=0.5;entryDx=0;entryDy=0;" edge="1" parent="1" source="nD2KpDLhWSEHvNIZdmov-92" target="nD2KpDLhWSEHvNIZdmov-66">
          <mxGeometry relative="1" as="geometry">
            <Array as="points">
              <mxPoint x="-470" y="-110" />
              <mxPoint x="-490" y="-110" />
              <mxPoint x="-490" y="346" />
            </Array>
          </mxGeometry>
        </mxCell>
        <mxCell id="nD2KpDLhWSEHvNIZdmov-92" value="매물 정보 없음" style="rounded=1;whiteSpace=wrap;html=1;fontSize=12;glass=0;strokeWidth=1;shadow=0;" vertex="1" parent="1">
          <mxGeometry x="-470" y="-126" width="140" height="40" as="geometry" />
        </mxCell>
        <mxCell id="nD2KpDLhWSEHvNIZdmov-93" style="edgeStyle=orthogonalEdgeStyle;rounded=0;orthogonalLoop=1;jettySize=auto;html=1;exitX=1;exitY=0.5;exitDx=0;exitDy=0;entryX=0;entryY=0.5;entryDx=0;entryDy=0;" edge="1" parent="1" source="nD2KpDLhWSEHvNIZdmov-94" target="nD2KpDLhWSEHvNIZdmov-79">
          <mxGeometry relative="1" as="geometry">
            <Array as="points">
              <mxPoint x="-10" y="184" />
              <mxPoint x="-10" y="-310" />
            </Array>
          </mxGeometry>
        </mxCell>
        <mxCell id="nD2KpDLhWSEHvNIZdmov-94" value="&lt;div&gt;해당 매물&lt;/div&gt;지역 정보 조회" style="rounded=1;whiteSpace=wrap;html=1;fontSize=12;glass=0;strokeWidth=1;shadow=0;" vertex="1" parent="1">
          <mxGeometry x="-186" y="164" width="140" height="40" as="geometry" />
        </mxCell>
        <mxCell id="nD2KpDLhWSEHvNIZdmov-95" style="edgeStyle=orthogonalEdgeStyle;rounded=0;orthogonalLoop=1;jettySize=auto;html=1;exitX=0.5;exitY=1;exitDx=0;exitDy=0;entryX=0.5;entryY=0;entryDx=0;entryDy=0;" edge="1" parent="1" target="nD2KpDLhWSEHvNIZdmov-83">
          <mxGeometry relative="1" as="geometry">
            <mxPoint x="-230" y="124" as="sourcePoint" />
          </mxGeometry>
        </mxCell>
        <mxCell id="nD2KpDLhWSEHvNIZdmov-96" style="edgeStyle=orthogonalEdgeStyle;rounded=0;orthogonalLoop=1;jettySize=auto;html=1;exitX=0.5;exitY=1;exitDx=0;exitDy=0;entryX=0.5;entryY=0;entryDx=0;entryDy=0;" edge="1" parent="1" target="nD2KpDLhWSEHvNIZdmov-94">
          <mxGeometry relative="1" as="geometry">
            <mxPoint x="-230" y="124" as="sourcePoint" />
          </mxGeometry>
        </mxCell>
        <mxCell id="nD2KpDLhWSEHvNIZdmov-97" style="edgeStyle=orthogonalEdgeStyle;rounded=0;orthogonalLoop=1;jettySize=auto;html=1;exitX=0.5;exitY=1;exitDx=0;exitDy=0;entryX=0.5;entryY=0;entryDx=0;entryDy=0;" edge="1" parent="1" source="nD2KpDLhWSEHvNIZdmov-118" target="nD2KpDLhWSEHvNIZdmov-66">
          <mxGeometry relative="1" as="geometry">
            <mxPoint x="-230" y="124" as="sourcePoint" />
          </mxGeometry>
        </mxCell>
        <mxCell id="nD2KpDLhWSEHvNIZdmov-99" value="YES" style="text;html=1;align=center;verticalAlign=middle;whiteSpace=wrap;rounded=0;fontSize=10;" vertex="1" parent="1">
          <mxGeometry x="-221" y="-66" width="35" height="20" as="geometry" />
        </mxCell>
        <mxCell id="nD2KpDLhWSEHvNIZdmov-100" value="YES" style="text;html=1;align=center;verticalAlign=middle;whiteSpace=wrap;rounded=0;fontSize=10;" vertex="1" parent="1">
          <mxGeometry x="-380" y="416" width="35" height="20" as="geometry" />
        </mxCell>
        <mxCell id="nD2KpDLhWSEHvNIZdmov-101" value="NO" style="text;html=1;align=center;verticalAlign=middle;whiteSpace=wrap;rounded=0;fontSize=10;" vertex="1" parent="1">
          <mxGeometry x="-230" y="476" width="35" height="20" as="geometry" />
        </mxCell>
        <mxCell id="nD2KpDLhWSEHvNIZdmov-102" value="NO" style="text;html=1;align=center;verticalAlign=middle;whiteSpace=wrap;rounded=0;fontSize=10;" vertex="1" parent="1">
          <mxGeometry x="-320" y="-126" width="35" height="20" as="geometry" />
        </mxCell>
        <mxCell id="nD2KpDLhWSEHvNIZdmov-103" style="edgeStyle=orthogonalEdgeStyle;rounded=0;orthogonalLoop=1;jettySize=auto;html=1;exitX=0.5;exitY=1;exitDx=0;exitDy=0;entryX=0.5;entryY=0;entryDx=0;entryDy=0;" edge="1" parent="1" source="nD2KpDLhWSEHvNIZdmov-104" target="nD2KpDLhWSEHvNIZdmov-73">
          <mxGeometry relative="1" as="geometry" />
        </mxCell>
        <mxCell id="nD2KpDLhWSEHvNIZdmov-104" value="&lt;div&gt;&lt;span style=&quot;background-color: initial;&quot;&gt;구 &amp;amp;&lt;/span&gt;&lt;/div&gt;&lt;div&gt;&lt;span style=&quot;background-color: initial;&quot;&gt;아파트 입력&lt;/span&gt;&lt;br&gt;&lt;/div&gt;" style="shape=parallelogram;perimeter=parallelogramPerimeter;whiteSpace=wrap;html=1;fixedSize=1;" vertex="1" parent="1">
          <mxGeometry x="-305" y="-270" width="150" height="40" as="geometry" />
        </mxCell>
        <mxCell id="nD2KpDLhWSEHvNIZdmov-107" value="매물 정보 출력&lt;div&gt;(최근거래가)&lt;/div&gt;" style="shape=document;whiteSpace=wrap;html=1;boundedLbl=1;" vertex="1" parent="1">
          <mxGeometry x="-290" y="-46" width="120" height="44" as="geometry" />
        </mxCell>
        <mxCell id="nD2KpDLhWSEHvNIZdmov-108" style="edgeStyle=orthogonalEdgeStyle;rounded=0;orthogonalLoop=1;jettySize=auto;html=1;exitX=0.5;exitY=1;exitDx=0;exitDy=0;startSize=6;strokeWidth=1;" edge="1" parent="1">
          <mxGeometry relative="1" as="geometry">
            <mxPoint x="-229" y="-10" as="sourcePoint" />
            <mxPoint x="-229" y="16" as="targetPoint" />
          </mxGeometry>
        </mxCell>
        <mxCell id="nD2KpDLhWSEHvNIZdmov-109" value="매물 정보 출력" style="shape=document;whiteSpace=wrap;html=1;boundedLbl=1;size=0.36363636363636365;" vertex="1" parent="1">
          <mxGeometry x="-390" y="242" width="120" height="44" as="geometry" />
        </mxCell>
        <mxCell id="nD2KpDLhWSEHvNIZdmov-110" value="매물 정보 출력" style="shape=document;whiteSpace=wrap;html=1;boundedLbl=1;" vertex="1" parent="1">
          <mxGeometry x="60" y="-86" width="120" height="44" as="geometry" />
        </mxCell>
        <mxCell id="nD2KpDLhWSEHvNIZdmov-111" value="매물 정보 출력" style="shape=document;whiteSpace=wrap;html=1;boundedLbl=1;" vertex="1" parent="1">
          <mxGeometry x="424" y="-90" width="120" height="44" as="geometry" />
        </mxCell>
        <mxCell id="nD2KpDLhWSEHvNIZdmov-113" value="" style="endArrow=classic;html=1;rounded=0;exitX=0.542;exitY=0.75;exitDx=0;exitDy=0;exitPerimeter=0;entryX=0.5;entryY=0;entryDx=0;entryDy=0;" edge="1" parent="1" source="nD2KpDLhWSEHvNIZdmov-109" target="nD2KpDLhWSEHvNIZdmov-66">
          <mxGeometry width="50" height="50" relative="1" as="geometry">
            <mxPoint x="-469.99999999999994" y="313.00800000000004" as="sourcePoint" />
            <mxPoint x="24.039999999999964" y="290" as="targetPoint" />
            <Array as="points">
              <mxPoint x="-325" y="310" />
              <mxPoint x="-230" y="310" />
            </Array>
          </mxGeometry>
        </mxCell>
        <mxCell id="nD2KpDLhWSEHvNIZdmov-115" value="" style="endArrow=classic;html=1;rounded=0;entryX=1;entryY=0.5;entryDx=0;entryDy=0;exitX=0.488;exitY=0.865;exitDx=0;exitDy=0;exitPerimeter=0;" edge="1" parent="1" target="nD2KpDLhWSEHvNIZdmov-66" source="nD2KpDLhWSEHvNIZdmov-110">
          <mxGeometry width="50" height="50" relative="1" as="geometry">
            <mxPoint x="117" y="-40" as="sourcePoint" />
            <mxPoint x="-120" y="346" as="targetPoint" />
            <Array as="points">
              <mxPoint x="120" y="346" />
            </Array>
          </mxGeometry>
        </mxCell>
        <mxCell id="nD2KpDLhWSEHvNIZdmov-116" value="" style="endArrow=classic;html=1;rounded=0;entryX=1;entryY=0.5;entryDx=0;entryDy=0;exitX=0.533;exitY=0.818;exitDx=0;exitDy=0;exitPerimeter=0;" edge="1" parent="1" source="nD2KpDLhWSEHvNIZdmov-111" target="nD2KpDLhWSEHvNIZdmov-66">
          <mxGeometry width="50" height="50" relative="1" as="geometry">
            <mxPoint x="550" y="80" as="sourcePoint" />
            <mxPoint x="-80" y="346" as="targetPoint" />
            <Array as="points">
              <mxPoint x="490" y="346" />
            </Array>
          </mxGeometry>
        </mxCell>
        <mxCell id="nD2KpDLhWSEHvNIZdmov-117" value="기능선택" style="rhombus;whiteSpace=wrap;html=1;" vertex="1" parent="1">
          <mxGeometry x="-300" y="-420" width="140" height="60" as="geometry" />
        </mxCell>
        <mxCell id="nD2KpDLhWSEHvNIZdmov-119" value="" style="edgeStyle=orthogonalEdgeStyle;rounded=0;orthogonalLoop=1;jettySize=auto;html=1;exitX=0.5;exitY=1;exitDx=0;exitDy=0;entryX=0.5;entryY=0;entryDx=0;entryDy=0;" edge="1" parent="1" target="nD2KpDLhWSEHvNIZdmov-118">
          <mxGeometry relative="1" as="geometry">
            <mxPoint x="-230" y="124" as="sourcePoint" />
            <mxPoint x="-230" y="326" as="targetPoint" />
          </mxGeometry>
        </mxCell>
        <mxCell id="nD2KpDLhWSEHvNIZdmov-118" value="기능선택" style="rhombus;whiteSpace=wrap;html=1;" vertex="1" parent="1">
          <mxGeometry x="-300" y="97" width="140" height="54" as="geometry" />
        </mxCell>
        <mxCell id="nD2KpDLhWSEHvNIZdmov-123" value="" style="edgeStyle=orthogonalEdgeStyle;rounded=0;orthogonalLoop=1;jettySize=auto;html=1;exitX=0.5;exitY=1;exitDx=0;exitDy=0;entryX=0.5;entryY=0;entryDx=0;entryDy=0;" edge="1" parent="1" source="nD2KpDLhWSEHvNIZdmov-70" target="nD2KpDLhWSEHvNIZdmov-117">
          <mxGeometry relative="1" as="geometry">
            <mxPoint x="-230" y="-540" as="sourcePoint" />
            <mxPoint x="-230" y="-470" as="targetPoint" />
          </mxGeometry>
        </mxCell>
        <mxCell id="nD2KpDLhWSEHvNIZdmov-128" style="edgeStyle=orthogonalEdgeStyle;rounded=0;orthogonalLoop=1;jettySize=auto;html=1;entryX=1;entryY=0.5;entryDx=0;entryDy=0;" edge="1" parent="1" source="nD2KpDLhWSEHvNIZdmov-126" target="nD2KpDLhWSEHvNIZdmov-66">
          <mxGeometry relative="1" as="geometry">
            <Array as="points">
              <mxPoint x="310" y="346" />
            </Array>
          </mxGeometry>
        </mxCell>
        <mxCell id="nD2KpDLhWSEHvNIZdmov-126" value="연평균 증가율" style="rounded=1;whiteSpace=wrap;html=1;fontSize=12;glass=0;strokeWidth=1;shadow=0;" vertex="1" parent="1">
          <mxGeometry x="250" y="-250" width="120" height="40" as="geometry" />
        </mxCell>
      </root>
    </mxGraphModel>
  </diagram>
</mxfile>
